<?xml version="1.0" encoding="utf-8"?>
<!-- Generator: Adobe Illustrator 15.0.0, SVG Export Plug-In  -->
<!DOCTYPE svg PUBLIC "-//W3C//DTD SVG 1.1//EN" "http://www.w3.org/Graphics/SVG/1.1/DTD/svg11.dtd" [
	<!ENTITY ns_flows "http://ns.adobe.com/Flows/1.0/">
]>
<svg version="1.1"
	 xmlns="http://www.w3.org/2000/svg" xmlns:xlink="http://www.w3.org/1999/xlink" xmlns:a="http://ns.adobe.com/AdobeSVGViewerExtensions/3.0/"
	 x="0px" y="0px" width="300px" height="300px" viewBox="0 0 300 300" overflow="visible" enable-background="new 0 0 300 300"
	 xml:space="preserve">
<defs>
</defs>
<path fill="#383838" d="M300,300c0,0-32.08-83.768-32.08-91.768c0-8-13.4-78.249-13.4-78.249s4.003-36.996,4.003-63.33
	S247.193,15.99,247.193,15.99S236.87,0,229.536,0c-7.333,0-17.647,13.354-17.647,13.354s-45.297,75.711-48.963,75.711
	c-3.24,0-3.694-0.975-10.773-1.203c-0.051-0.019-0.1-0.048-0.152-0.048c-0.289,0-0.565,0.016-0.85,0.021
	c-0.664-0.014-1.375-0.021-2.15-0.021c-0.118,0-0.23,0.059-0.34,0.144c-4.183,0.323-7.743,1.107-10.66,1.107
	c-3.667,0-49-75.711-49-75.711S78.667,0,71.333,0S53.667,15.99,53.667,15.99S42.333,40.319,42.333,66.653s4,63.33,4,63.33
	s-9,64.502-9,72.502C37.333,210.486,0,300,0,300"/>
</svg>
